<?xml version="1.0" encoding="UTF-8"?>
<svg id="Layer_1" data-name="Layer 1" xmlns="http://www.w3.org/2000/svg" viewBox="0 0 416.87 51.11">
  <defs>
    <style>
      .cls-1 {
        fill: #ffff;
        stroke-width: 0px;
      }
    </style>
  </defs>
  <path class="cls-1" d="M24.15,11.25c-2.74,0-4.94.49-6.62,1.46-1.68.98-3.01,2.17-3.99,3.58-.98,1.41-1.64,2.95-1.99,4.63-.35,1.68-.53,3.22-.53,4.63s.18,2.95.53,4.63c.35,1.68,1.01,3.22,1.99,4.63.98,1.41,2.3,2.6,3.99,3.58,1.68.98,3.89,1.46,6.62,1.46h64.59c1.56,0,2.89.55,3.99,1.64,1.09,1.1,1.64,2.42,1.64,3.99s-.55,2.89-1.64,3.99c-1.1,1.1-2.42,1.64-3.99,1.64H20.4c-3.21,0-6.06-.78-8.56-2.34-2.5-1.56-4.63-3.58-6.39-6.04-1.76-2.46-3.11-5.22-4.04-8.26-.94-3.05-1.41-6.02-1.41-8.91s.49-5.96,1.47-8.97c.98-3.01,2.4-5.74,4.28-8.21s4.14-4.47,6.8-6.04c2.66-1.56,5.67-2.34,9.03-2.34h67.17c1.56,0,2.89.55,3.99,1.64,1.09,1.1,1.64,2.42,1.64,3.99s-.55,2.89-1.64,3.99c-1.1,1.1-2.42,1.64-3.99,1.64H24.15ZM87.8,21.57c1.09,1.1,1.64,2.42,1.64,3.99s-.55,2.89-1.64,3.99c-1.1,1.1-2.42,1.64-3.99,1.64H25.44c-1.56,0-2.89-.55-3.99-1.64-1.1-1.09-1.64-2.42-1.64-3.99s.55-2.89,1.64-3.99c1.09-1.09,2.42-1.64,3.99-1.64h58.37c1.56,0,2.89.55,3.99,1.64Z"/>
  <g>
    <path class="cls-1" d="M139.43,22.66c0-1.03.17-2.06.51-3.1.34-1.04.83-1.98,1.48-2.83s1.43-1.55,2.35-2.09,1.96-.81,3.12-.81h23.61c.54,0,1,.19,1.38.57.38.38.57.84.57,1.38s-.19,1-.57,1.38c-.38.38-.84.57-1.38.57h-22.76c-.95,0-1.71.17-2.29.51-.58.34-1.04.75-1.38,1.24-.34.49-.57,1.02-.69,1.6-.12.58-.18,1.11-.18,1.6s.06,1.02.18,1.6c.12.58.35,1.11.69,1.6.34.49.8.9,1.38,1.24.58.34,1.34.51,2.29.51h22.76c.54,0,1,.19,1.38.57.38.38.57.84.57,1.38s-.19,1-.57,1.38c-.38.38-.84.57-1.38.57h-24.02c-1.11,0-2.09-.27-2.96-.81-.86-.54-1.6-1.24-2.21-2.09-.61-.85-1.07-1.8-1.4-2.86-.32-1.05-.49-2.08-.49-3.08Z"/>
    <path class="cls-1" d="M209.46,22.66c0,1.03-.17,2.06-.51,3.1-.34,1.04-.83,1.98-1.48,2.83-.65.85-1.43,1.55-2.35,2.09-.92.54-1.96.81-3.12.81h-18.47c-1.11-.05-2.09-.36-2.96-.91-.87-.55-1.6-1.25-2.21-2.09-.61-.84-1.07-1.77-1.4-2.79-.32-1.03-.49-2.04-.49-3.04s.17-2.06.51-3.1c.34-1.04.83-1.98,1.48-2.83s1.43-1.55,2.35-2.09,1.96-.81,3.12-.81h18.47c1.11.05,2.09.36,2.96.91.86.55,1.6,1.25,2.21,2.09.61.84,1.07,1.77,1.4,2.79.32,1.03.49,2.04.49,3.04ZM203.42,27.1c.59-.34,1.06-.75,1.4-1.24.34-.49.57-1.02.69-1.6.12-.58.18-1.11.18-1.6s-.06-1.02-.18-1.6c-.12-.58-.35-1.11-.69-1.6-.34-.49-.8-.9-1.4-1.24-.59-.34-1.35-.51-2.27-.51h-16.36c-.95,0-1.71.17-2.29.51-.58.34-1.04.75-1.38,1.24s-.57,1.02-.69,1.6c-.12.58-.18,1.11-.18,1.6s.06,1.02.18,1.6c.12.58.35,1.11.69,1.6.34.49.8.9,1.38,1.24.58.34,1.34.51,2.29.51h16.36c.92,0,1.67-.17,2.27-.51Z"/>
    <path class="cls-1" d="M241.66,14.4c.38-.38.84-.57,1.38-.57s1,.19,1.38.57.57.84.57,1.38v11.79c0,1.11-.37,2.04-1.11,2.79-.74.76-1.67,1.13-2.77,1.13-.38,0-.75-.05-1.11-.16-.37-.11-.7-.26-.99-.45l-18.55-11.34c-.51-.3-.94-.53-1.28-.71-.34-.17-.61-.26-.83-.26-.41,0-.66.26-.77.77-.11.51-.16,1.25-.16,2.23v7.98c0,.54-.19,1-.57,1.38s-.84.57-1.38.57-1-.19-1.38-.57-.57-.84-.57-1.38v-11.79c0-1.11.37-2.04,1.11-2.79.74-.75,1.67-1.13,2.77-1.13.38,0,.75.05,1.11.16.36.11.69.26.99.45l18.55,11.34c.51.3.94.53,1.28.71.34.18.61.26.83.26.41,0,.66-.26.77-.77.11-.51.16-1.26.16-2.23v-7.98c0-.54.19-1,.57-1.38Z"/>
    <path class="cls-1" d="M280.22,14.4c.38.38.57.84.57,1.38s-.19,1-.57,1.38c-.38.38-.84.57-1.38.57h-11.99v11.83c0,.54-.19,1-.57,1.38-.38.38-.84.57-1.38.57s-1-.19-1.38-.57c-.38-.38-.57-.84-.57-1.38v-11.83h-12.15c-.49-.05-.9-.26-1.25-.63-.35-.36-.53-.8-.53-1.32,0-.54.19-1,.57-1.38s.84-.57,1.38-.57h27.87c.54,0,1,.19,1.38.57Z"/>
    <path class="cls-1" d="M283.21,30.76c-.41.49-.91.73-1.5.73-.54,0-1-.19-1.38-.57s-.57-.84-.57-1.38c0-.49.13-.88.4-1.17l9.84-13.25c.46-.62,1.07-1.13,1.82-1.52s1.57-.59,2.43-.59c.81,0,1.58.18,2.31.53.73.35,1.32.84,1.78,1.46l9.84,13.16c.16.19.3.4.41.63.11.23.16.48.16.75,0,.54-.19,1-.57,1.38s-.84.57-1.38.57c-.65,0-1.16-.26-1.54-.77l-9.44-12.6c-.19-.22-.42-.45-.71-.71-.28-.26-.57-.38-.87-.38s-.59.13-.87.38-.51.49-.67.71l-9.52,12.64Z"/>
    <path class="cls-1" d="M312.82,15.78c0-.54.19-1,.57-1.38s.84-.57,1.38-.57h24.26c.76,0,1.46.14,2.13.43.66.28,1.24.67,1.74,1.15.5.49.89,1.06,1.17,1.72.28.66.42,1.37.42,2.13,0,.67-.11,1.3-.34,1.88-.23.58-.53,1.1-.91,1.56.38.46.68.98.91,1.56.23.58.34,1.19.34,1.84,0,.76-.14,1.46-.42,2.11-.28.65-.67,1.21-1.17,1.7-.5.49-1.08.87-1.74,1.15-.66.28-1.37.42-2.13.42h-21.26c-.59,0-1.19-.13-1.78-.38-.59-.26-1.12-.61-1.58-1.07-.46-.46-.84-1.01-1.13-1.66-.3-.65-.45-1.38-.45-2.19v-3.65c0-.73.21-1.21.63-1.46s1.07-.36,1.96-.36h23.82c.4,0,.75-.13,1.05-.41.3-.27.45-.62.45-1.05,0-.41-.16-.76-.47-1.07s-.67-.47-1.07-.47h-24.42c-.54,0-1-.19-1.38-.57-.38-.38-.57-.84-.57-1.38ZM339.19,27.6c.41,0,.76-.15,1.07-.45.31-.3.47-.65.47-1.05,0-.43-.16-.79-.47-1.07s-.67-.43-1.07-.43h-22.48v1.99c0,.27.11.51.34.71.23.2.53.3.91.3h21.22Z"/>
    <path class="cls-1" d="M351.95,31.07c-.68-.28-1.26-.67-1.76-1.15-.5-.49-.9-1.05-1.2-1.7-.3-.65-.45-1.35-.45-2.11v-10.33c0-.54.19-1,.57-1.38s.84-.57,1.38-.57c.51,0,.96.19,1.36.57s.59.84.59,1.38v10.33c0,.41.16.76.47,1.05.31.3.67.45,1.07.45h24.3c.54,0,1,.19,1.38.57.38.38.57.84.57,1.38s-.19,1-.57,1.38c-.38.38-.84.57-1.38.57h-24.18c-.76,0-1.47-.14-2.15-.42Z"/>
    <path class="cls-1" d="M384.27,15.78c0-.54.19-1,.57-1.38s.84-.57,1.38-.57h28.72c.54,0,1,.19,1.38.57.38.38.57.84.57,1.38s-.19,1-.57,1.38-.84.57-1.38.57h-28.72c-.54,0-1-.19-1.38-.57-.38-.38-.57-.84-.57-1.38ZM389.21,31.49c-.59,0-1.19-.13-1.78-.38-.59-.26-1.12-.61-1.58-1.07-.46-.46-.84-1.01-1.13-1.66-.3-.65-.45-1.38-.45-2.19v-3.65c0-.73.21-1.21.63-1.46.42-.24,1.07-.36,1.96-.36h27.18c.54,0,1,.19,1.38.57s.57.84.57,1.38-.19,1-.57,1.38-.84.57-1.38.57h-25.88v1.99c0,.27.12.51.34.71.23.2.53.3.91.3h25.52c.54,0,1,.19,1.38.57.38.38.57.84.57,1.38s-.19,1-.57,1.38c-.38.38-.84.57-1.38.57h-25.72Z"/>
  </g>
  <circle class="cls-1" cx="115.5" cy="22.86" r="8.83"/>
</svg>